<?xml version="1.0" encoding="utf-8"?>
<svg width="572px" height="170px" viewBox="0 0 572 170" version="1.1" xmlns:xlink="http://www.w3.org/1999/xlink" xmlns="http://www.w3.org/2000/svg">
  <desc>Created with Lunacy</desc>
  <defs>
    <path d="M0 85C0 38.0558 38.0558 0 85 0C131.944 0 170 38.0558 170 85C170 131.944 131.944 170 85 170C38.0558 170 0 131.944 0 85Z" id="path_1" />
    <clipPath id="mask_1">
      <use xlink:href="#path_1" />
    </clipPath>
  </defs>
  <g id="Group">
    <g id="Icon">
      <path d="M0 85C0 38.0558 38.0558 0 85 0C131.944 0 170 38.0558 170 85C170 131.944 131.944 170 85 170C38.0558 170 0 131.944 0 85Z" id="Ellipse" fill="#D3D3D3" stroke="none" />
      <g clip-path="url(#mask_1)">
        <g id="Rectangles">
          <path d="M0 0L56.6667 0L56.6667 170L0 170L0 0Z" id="Rectangle" fill="#0075F5" stroke="none" />
          <path d="M0 0L56.6667 0L56.6667 170L0 170L0 0Z" transform="translate(56.66666 0)" id="Rectangle-Copy" fill="#01152A" stroke="none" />
          <path d="M0 0L56.6667 0L56.6667 170L0 170L0 0Z" transform="translate(113.3333 0)" id="Rectangle-Copy-2" fill="#1FB94D" stroke="none" />
        </g>
      </g>
    </g>
    <g id="Dark-and--Light" transform="translate(200 0)">
      <g id="Dark-and" fill="#01152A">
        <path d="M163.584 75.632L152.568 58.928L152.568 75.632L138.384 75.632L138.384 22.352L152.568 22.352L152.568 50.936L163.656 35.24L180.144 35.24L164.448 55.472L180.576 75.632L163.584 75.632ZM318.528 36.572Q315.432 34.736 311.184 34.736Q306.36 34.736 302.472 37.22Q298.584 39.704 296.352 44.384Q294.12 49.064 294.12 55.4Q294.12 61.736 296.352 66.452Q298.584 71.168 302.472 73.652Q306.36 76.136 311.184 76.136Q315.432 76.136 318.528 74.3Q321.624 72.464 323.136 69.224L323.136 75.632L337.32 75.632L337.32 22.352L323.136 22.352L323.136 41.648Q321.624 38.408 318.528 36.572ZM50.688 50Q50.688 57.416 47.448 63.212Q44.208 69.008 38.232 72.32Q32.256 75.632 24.192 75.632L3.888 75.632L3.888 24.656L24.192 24.656Q32.256 24.656 38.268 27.86Q44.28 31.064 47.484 36.824Q50.688 42.584 50.688 50ZM72 34.736Q76.248 34.736 79.38 36.572Q82.512 38.408 84.024 41.648L84.024 35.24L98.136 35.24L98.136 75.632L84.024 75.632L84.024 69.224Q82.512 72.464 79.38 74.3Q76.248 76.136 72 76.136Q67.176 76.136 63.288 73.652Q59.4 71.168 57.168 66.452Q54.936 61.736 54.936 55.4Q54.936 49.064 57.168 44.384Q59.4 39.704 63.288 37.22Q67.176 34.736 72 34.736ZM220.212 36.572Q217.08 34.736 212.832 34.736Q208.008 34.736 204.12 37.22Q200.232 39.704 198 44.384Q195.768 49.064 195.768 55.4Q195.768 61.736 198 66.452Q200.232 71.168 204.12 73.652Q208.008 76.136 212.832 76.136Q217.08 76.136 220.212 74.3Q223.344 72.464 224.856 69.224L224.856 75.632L238.968 75.632L238.968 35.24L224.856 35.24L224.856 41.648Q223.344 38.408 220.212 36.572ZM126.072 37.04Q122.472 39.2 120.096 42.8L120.096 35.24L105.912 35.24L105.912 75.632L120.096 75.632L120.096 58.208Q120.096 53.672 122.472 51.836Q124.848 50 129.6 50L133.704 50L133.704 34.88Q129.672 34.88 126.072 37.04ZM273.744 34.88Q280.728 34.88 284.688 39.524Q288.648 44.168 288.648 52.16L288.648 75.632L274.608 75.632L274.608 53.96Q274.608 50.432 272.772 48.452Q270.936 46.472 267.84 46.472Q264.672 46.472 262.8 48.524Q260.928 50.576 260.928 54.176L260.928 75.632L246.744 75.632L246.744 35.24L260.928 35.24L260.928 42.008Q262.656 38.768 265.968 36.824Q269.28 34.88 273.744 34.88ZM22.896 62.96Q29.16 62.96 32.76 59.576Q36.36 56.192 36.36 50Q36.36 43.88 32.76 40.46Q29.16 37.04 22.896 37.04L18.072 37.04L18.072 62.96L22.896 62.96ZM76.68 47.12Q73.368 47.12 71.316 49.316Q69.264 51.512 69.264 55.4Q69.264 59.36 71.316 61.556Q73.368 63.752 76.68 63.752Q79.848 63.752 81.936 61.52Q84.024 59.288 84.024 55.4Q84.024 51.584 81.936 49.352Q79.848 47.12 76.68 47.12ZM212.148 49.316Q214.2 47.12 217.512 47.12Q220.68 47.12 222.768 49.352Q224.856 51.584 224.856 55.4Q224.856 59.288 222.768 61.52Q220.68 63.752 217.512 63.752Q214.2 63.752 212.148 61.556Q210.096 59.36 210.096 55.4Q210.096 51.512 212.148 49.316ZM310.5 49.316Q312.552 47.12 315.864 47.12Q319.032 47.12 321.12 49.352Q323.208 51.584 323.208 55.4Q323.208 59.288 321.12 61.52Q319.032 63.752 315.864 63.752Q312.552 63.752 310.5 61.556Q308.448 59.36 308.448 55.4Q308.448 51.512 310.5 49.316Z" />
      </g>
      <g id="Light" fill="#01152A">
        <path d="M38.16 94.08Q38.16 90.912 40.464 88.86Q42.768 86.808 46.512 86.808Q50.256 86.808 52.488 88.86Q54.72 90.912 54.72 94.08Q54.72 97.104 52.452 99.12Q50.184 101.136 46.512 101.136Q42.768 101.136 40.464 99.12Q38.16 97.104 38.16 94.08ZM137.232 104.88Q144.216 104.88 148.176 109.524Q152.136 114.168 152.136 122.16L152.136 145.632L138.096 145.632L138.096 123.96Q138.096 120.432 136.26 118.452Q134.424 116.472 131.328 116.472Q128.16 116.472 126.288 118.524Q124.416 120.576 124.416 124.176L124.416 145.632L110.232 145.632L110.232 92.352L124.416 92.352L124.416 112.008Q126.144 108.768 129.456 106.824Q132.768 104.88 137.232 104.88ZM18.072 134.904L33.984 134.904L33.984 145.632L3.888 145.632L3.888 94.656L18.072 94.656L18.072 134.904ZM183.744 145.632L183.744 133.536L179.928 133.536Q177.984 133.536 177.156 132.744Q176.328 131.952 176.328 130.08L176.328 117.048L183.6 117.048L183.6 105.24L176.328 105.24L176.328 95.448L162.144 95.448L162.144 105.24L156.96 105.24L156.96 117.048L162.144 117.048L162.144 129.792Q162.144 138.288 166.32 141.96Q170.496 145.632 177.912 145.632L183.744 145.632ZM83.7 106.572Q80.568 104.736 76.32 104.736Q71.496 104.736 67.608 107.22Q63.72 109.704 61.488 114.384Q59.256 119.064 59.256 125.4Q59.256 131.736 61.488 136.452Q63.72 141.168 67.608 143.652Q71.496 146.136 76.32 146.136Q80.568 146.136 83.7 144.3Q86.832 142.464 88.344 139.224L88.344 145.2Q88.344 153.192 81.144 153.192Q78.336 153.192 76.68 152.112Q75.024 151.032 74.52 149.016L60.624 149.016Q61.56 156.648 67.14 161.04Q72.72 165.432 82.152 165.432Q89.064 165.432 93.6 162.696Q98.136 159.96 100.296 155.388Q102.456 150.816 102.456 145.2L102.456 105.24L88.344 105.24L88.344 111.648Q86.832 108.408 83.7 106.572ZM53.496 105.24L53.496 145.632L39.312 145.632L39.312 105.24L53.496 105.24ZM75.636 119.316Q77.688 117.12 81 117.12Q84.168 117.12 86.256 119.352Q88.344 121.584 88.344 125.4Q88.344 129.288 86.256 131.52Q84.168 133.752 81 133.752Q77.688 133.752 75.636 131.556Q73.584 129.36 73.584 125.4Q73.584 121.512 75.636 119.316Z" />
      </g>
    </g>
  </g>
</svg>